<?xml version='1.0' encoding='UTF-8'?>
<svg xmlns="http://www.w3.org/2000/svg" xmlns:inkscape="http://www.inkscape.org/namespaces/inkscape" xmlns:ns1="http://sodipodi.sourceforge.net/DTD/sodipodi-0.dtd" class="svg-icon" style="overflow:hidden;fill:#ffffff" viewBox="50 230 940 420" version="1.1" id="svg5" ns1:docname="conveyor-belt-2.svg" inkscape:export-batch-name="" inkscape:export-batch-path="..\Documents\Reto 3 Recu - FILIP\Reto-3-Recu\resources\img" inkscape:export-filename="..\Documents\Reto 3 Recu - FILIP\Reto-3-Recu\resources\img\cinta-transportadora.svg" inkscape:export-xdpi="96" inkscape:export-ydpi="96" width="940" height="420">
  <defs id="defs5">
    <inkscape:path-effect effect="pts2ellipse" id="path-effect8" is_visible="true" lpeversion="1" method="perspective_circle" gen_arc="false" arc_other="false" slice_arc="false" gen_isometric_frame="true" draw_axes="false" gen_perspective_frame="false" draw_perspective_axes="false" rot_axes="0" draw_ori_path="false" />
    <inkscape:path-effect effect="pts2ellipse" id="path-effect8-4" is_visible="true" lpeversion="1" method="perspective_circle" gen_arc="false" arc_other="false" slice_arc="false" gen_isometric_frame="true" draw_axes="false" gen_perspective_frame="false" draw_perspective_axes="false" rot_axes="0" draw_ori_path="false" />
  </defs>
  <ns1:namedview id="namedview5" pagecolor="#505050" bordercolor="#eeeeee" borderopacity="1" inkscape:showpageshadow="0" inkscape:pageopacity="0" inkscape:pagecheckerboard="0" inkscape:deskcolor="#505050" showgrid="false" inkscape:export-bgcolor="#ffffff00">
    <inkscape:page x="0" y="0" width="1048576" height="1048576" id="page2" margin="0" bleed="0" />
  </ns1:namedview>
  <rect style="fill:#666666" id="rect5" width="929.94568" height="370.91849" x="50.33894" y="264.94177" inkscape:label="Recuadro" />
  <g id="g8" inkscape:label="Flechas">
    <path d="m 642.32688,458.24039 a 20.94544,20.94544 0 0 1 0,-32.11635 l 76.3345,-63.5345 A 17.826897,17.826897 0 0 0 695.38866,335.5932 l -111.70901,93.09084 a 17.687261,17.687261 0 0 0 0,26.99635 l 111.70901,93.09084 a 18.152715,18.152715 0 0 0 11.17091,3.95636 17.221806,17.221806 0 0 0 13.49817,-6.28363 17.687261,17.687261 0 0 0 -2.32727,-24.66907 z" id="path5" style="overflow:hidden;fill:#ffffff" />
    <path d="m 894.96169,466.35545 a 20.94544,20.94544 0 0 1 0,-32.11635 l 76.3345,-63.5345 A 17.826897,17.826897 0 0 0 948.02347,343.70826 L 836.31446,436.7991 a 17.687261,17.687261 0 0 0 0,26.99635 l 111.70901,93.09084 a 18.152715,18.152715 0 0 0 11.17091,3.95636 17.221806,17.221806 0 0 0 13.49817,-6.28363 17.687261,17.687261 0 0 0 -2.32727,-24.66907 z" id="path5-7" style="overflow:hidden;fill:#ffffff" />
    <path d="m 373.03025,455.50422 a 20.94544,20.94544 0 0 1 0,-32.11635 l 76.3345,-63.5345 a 17.826897,17.826897 0 0 0 -23.27272,-26.99634 l -111.70901,93.09084 a 17.687261,17.687261 0 0 0 0,26.99635 l 111.70901,93.09084 a 18.152715,18.152715 0 0 0 11.17091,3.95636 17.221806,17.221806 0 0 0 13.49817,-6.28363 17.687261,17.687261 0 0 0 -2.32727,-24.66907 z" id="path5-8" style="overflow:hidden;fill:#ffffff" />
    <path d="m 778.43388,460.74742 a 20.94544,20.94544 0 0 1 0,-32.11635 l 76.3345,-63.5345 a 17.826897,17.826897 0 0 0 -23.27272,-26.99634 l -111.70901,93.09084 a 17.687261,17.687261 0 0 0 0,26.99635 l 111.70901,93.09084 a 18.152715,18.152715 0 0 0 11.17091,3.95636 17.221806,17.221806 0 0 0 13.49817,-6.28363 17.687261,17.687261 0 0 0 -2.32727,-24.66907 z" id="path5-2" style="overflow:hidden;fill:#ffffff" />
    <path d="m 502.69061,458.24039 a 20.94544,20.94544 0 0 1 0,-32.11635 l 76.3345,-63.5345 A 17.826897,17.826897 0 0 0 555.7524,335.5932 l -111.70902,93.09084 a 17.687261,17.687261 0 0 0 0,26.99635 l 111.70902,93.09084 a 18.152715,18.152715 0 0 0 11.1709,3.95636 17.221806,17.221806 0 0 0 13.49817,-6.28363 17.687261,17.687261 0 0 0 -2.32727,-24.66907 z m -279.27253,0 a 20.94544,20.94544 0 0 1 0,-32.11635 l 76.33449,-63.5345 A 17.826897,17.826897 0 0 0 276.47986,335.5932 l -111.70902,93.09084 a 17.687261,17.687261 0 0 0 0,26.99635 l 111.70902,93.09084 a 18.152715,18.152715 0 0 0 11.1709,3.95636 17.221806,17.221806 0 0 0 13.49817,-6.28363 17.687261,17.687261 0 0 0 -2.32727,-24.66907 z" id="path2" style="overflow:hidden;fill:#ffffff" />
    <path d="m 118.61502,458.57407 a 20.94544,20.94544 0 0 1 0,-32.11635 l 76.3345,-63.5345 a 17.826897,17.826897 0 0 0 -23.2727,-26.99634 L 59.967721,429.01772 a 17.687261,17.687261 0 0 0 0,26.99635 l 111.709099,93.09084 a 18.152715,18.152715 0 0 0 11.1709,3.95636 17.221806,17.221806 0 0 0 13.4981,-6.28363 17.687261,17.687261 0 0 0 -2.3272,-24.66907 z" id="path5-27" style="overflow:hidden;fill:#ffffff" />
  </g>
  <g id="g9" inkscape:label="Borde">
    <path style="display:inline;fill:#000000;stroke-width:1.15869" id="path6" inkscape:highlight-color="#de0000" inkscape:path-effect="#path-effect8" ns1:type="arc" ns1:cx="520.6106" ns1:cy="268.91589" ns1:rx="467" ns1:ry="24" d="m 520.6106,285.88646 c -182.37485,0 -330.21887,-7.59798 -330.21887,-16.97057 0,-9.37258 147.84402,-16.97056 330.21887,-16.97056 182.37484,0 330.21886,7.59798 330.21886,16.97056 0,9.37259 -147.84402,16.97057 -330.21886,16.97057 z m 330.21886,-33.94113 v 33.94113 H 190.39173 v -33.94113 z" transform="matrix(1.4028023,0,0,1,-213.44998,0)" />
    <path style="display:inline;overflow:hidden;fill:#000000;stroke-width:1.15869" id="path6-5" inkscape:highlight-color="#de0000" inkscape:path-effect="#path-effect8-4" ns1:type="arc" ns1:cx="520.6106" ns1:cy="268.91589" ns1:rx="467" ns1:ry="24" d="m 520.6106,285.88646 c -182.37485,0 -330.21887,-7.59798 -330.21887,-16.97057 0,-9.37258 147.84402,-16.97056 330.21887,-16.97056 182.37484,0 330.21886,7.59798 330.21886,16.97056 0,9.37259 -147.84402,16.97057 -330.21886,16.97057 z m 330.21886,-33.94113 v 33.94113 H 190.39173 v -33.94113 z" transform="matrix(1.4028023,0,0,1,-215.0963,348.83969)" />
  </g>
</svg>